<svg id="logo_ana_tagline" xmlns="http://www.w3.org/2000/svg" width="194.59" height="18" viewBox="0 0 194.59 18">
  <g id="グループ_91" data-name="グループ 91">
    <g id="グループ_89" data-name="グループ 89" transform="translate(45.551)">
      <path id="パス_173" data-name="パス 173" d="M79.3,0,68.941,17.926h2.865L82.239,0Z" transform="translate(-57.406)" fill="#00a7ea"/>
      <path id="パス_174" data-name="パス 174" d="M66.545,17.926,76.9,0H65.37L55.01,17.926Z" transform="translate(-55.01)" fill="#0b318f"/>
    </g>
    <g id="グループ_90" data-name="グループ 90" transform="translate(0 2.35)">
      <path id="パス_175" data-name="パス 175" d="M23.307,6.439a.316.316,0,0,1,.294-.294c.147,0,.294.074.294.22L27.2,18.342h5.362l2.793-15.5H33L30.874,14.888a.315.315,0,0,1-.294.294c-.147,0-.294-.073-.294-.22L26.981,2.839H21.618L18.9,18.414h2.351Z" transform="translate(-3.25 -2.838)" fill="#0b318f"/>
      <path id="パス_176" data-name="パス 176" d="M10.8,13.125l-.441-6.98a.374.374,0,0,0-.293-.368C9.918,5.7,9.7,5.851,9.624,6L2.645,18.419H0L8.816,2.839h5.217l1.028,15.575H11.241l-.147-1.689a.662.662,0,0,0-.662-.662h-5.8l1.325-2.351h4.405C10.58,13.786,10.874,13.493,10.8,13.125Z" transform="translate(0 -2.838)" fill="#0b318f"/>
      <path id="パス_177" data-name="パス 177" d="M46.4,13.2,45.81,6.292A.337.337,0,0,0,45.442,6a.383.383,0,0,0-.294.147L38.835,18.488H36.112l8.082-15.65h5.142l1.4,15.575H46.84l-.147-1.689a.662.662,0,0,0-.662-.662H40.593l1.176-2.351H45.81A.489.489,0,0,0,46.4,13.2Z" transform="translate(-6.21 -2.838)" fill="#0b318f"/>
    </g>
  </g>
  <g id="グループ_92" data-name="グループ 92" transform="translate(78.664 6.005)">
    <path id="パス_178" data-name="パス 178" d="M193.154,13.777c0,1.6-.58,1.961-1.525,1.961a3.3,3.3,0,0,1-1.159-.218l-.291,1.307a4.146,4.146,0,0,0,1.6.291c1.816,0,3.051-.8,3.051-3.341V7.966h-1.67Z" transform="translate(-111.367 -7.375)" fill="#0b318f"/>
    <rect id="長方形_73" data-name="長方形 73" width="1.671" height="9.007" transform="translate(0 0.591)" fill="#0b318f"/>
    <path id="パス_179" data-name="パス 179" d="M102.755,10.773a2.4,2.4,0,0,0-2.107,1.09h0l-.073-.944H99.123c0,.58.073,1.159.073,1.961v4.576h1.6v-3.85a1.076,1.076,0,0,1,.073-.508,1.423,1.423,0,0,1,1.307-.944c.872,0,1.235.726,1.235,1.67v3.7h1.671V13.605C105.079,11.572,103.917,10.773,102.755,10.773Z" transform="translate(-95.709 -7.857)" fill="#0b318f"/>
    <path id="パス_180" data-name="パス 180" d="M110.728,13.606c-.872-.363-1.159-.508-1.159-.944s.291-.726.945-.726a3.161,3.161,0,0,1,1.38.363l.364-1.159a3.671,3.671,0,0,0-1.743-.364c-1.525,0-2.47.872-2.47,2.034,0,.8.508,1.453,1.816,1.889.8.291,1.09.508,1.09.944s-.291.726-1.017.726a3.034,3.034,0,0,1-1.671-.508L107.9,17.1a3.918,3.918,0,0,0,1.961.436c1.739,0,2.688-.872,2.688-2.034a2.3,2.3,0,0,0-1.819-1.891Z" transform="translate(-97.218 -7.857)" fill="#0b318f"/>
    <path id="パス_181" data-name="パス 181" d="M118.69,10.773a2.6,2.6,0,0,0-2.252,1.159h0l-.072-1.017h-1.453c0,.58.073,1.307.073,2.179v6.755h1.6V16.8h0a2.2,2.2,0,0,0,1.816.871c1.452,0,2.981-1.159,2.981-3.486C121.449,12.08,120.215,10.773,118.69,10.773Zm-.58,5.593a1.484,1.484,0,0,1-1.452-1.159.917.917,0,0,1-.073-.436V13.751a.921.921,0,0,1,.073-.436,1.536,1.536,0,0,1,1.452-1.235c1.09,0,1.6.944,1.6,2.107.07,1.307-.583,2.179-1.6,2.179Z" transform="translate(-98.424 -7.857)" fill="#0b318f"/>
    <path id="パス_182" data-name="パス 182" d="M125.325,7.7a.874.874,0,1,0,0,1.739.9.9,0,0,0,.945-.871.949.949,0,0,0-.945-.868Z" transform="translate(-100.048 -7.328)" fill="#0b318f"/>
    <rect id="長方形_74" data-name="長方形 74" width="1.671" height="6.537" transform="translate(24.406 3.061)" fill="#0b318f"/>
    <path id="パス_183" data-name="パス 183" d="M130.123,12.153h0l-.073-1.235H128.6a17.686,17.686,0,0,1,.073,2.106v4.431h1.666V14.114a1.247,1.247,0,0,1,.072-.508,1.478,1.478,0,0,1,1.453-1.235,1.076,1.076,0,0,1,.508.073v-1.6c-.146,0-.218-.073-.364-.073A2,2,0,0,0,130.123,12.153Z" transform="translate(-100.778 -7.857)" fill="#0b318f"/>
    <path id="パス_184" data-name="パス 184" d="M139.2,13.533c0-1.452-.58-2.76-2.688-2.76a4.5,4.5,0,0,0-2.324.58l.291,1.09a3.287,3.287,0,0,1,1.739-.508c1.159,0,1.307.726,1.307,1.159v.073c-2.4,0-3.85.8-3.85,2.469a1.926,1.926,0,0,0,2.034,1.962,2.5,2.5,0,0,0,1.962-.872h.072l.146.726h1.452a10.337,10.337,0,0,1-.072-1.6v-2.32Zm-1.6,1.671a.656.656,0,0,1-.073.364,1.389,1.389,0,0,1-1.307.871.875.875,0,0,1-.944-.944c0-1.017,1.09-1.235,2.251-1.235V15.2Z" transform="translate(-101.651 -7.857)" fill="#0b318f"/>
    <path id="パス_185" data-name="パス 185" d="M144.209,8.931l-1.6.436V10.6h-.944v1.235h.944v3.051a2.47,2.47,0,0,0,.508,1.816,1.774,1.774,0,0,0,1.452.508,4.14,4.14,0,0,0,1.159-.145V15.831a1.8,1.8,0,0,1-.654.073c-.653,0-.871-.436-.871-1.235V11.764h1.6V10.6h-1.6Z" transform="translate(-103.025 -7.541)" fill="#0b318f"/>
    <rect id="長方形_75" data-name="長方形 75" width="1.671" height="6.537" transform="translate(44.162 3.061)" fill="#0b318f"/>
    <path id="パス_186" data-name="パス 186" d="M149.1,7.7a.874.874,0,1,0,0,1.739.9.9,0,0,0,.945-.871A.86.86,0,0,0,149.1,7.7Z" transform="translate(-104.136 -7.328)" fill="#0b318f"/>
    <path id="パス_187" data-name="パス 187" d="M155.093,10.772a3.205,3.205,0,0,0-3.341,3.487A3.147,3.147,0,0,0,155.02,17.6a3.237,3.237,0,0,0,3.341-3.487,3.147,3.147,0,0,0-3.269-3.341Zm-.072,5.665c-1.017,0-1.6-.944-1.6-2.179,0-1.09.436-2.252,1.67-2.252,1.09,0,1.6,1.159,1.6,2.179-.072,1.307-.726,2.251-1.672,2.251Z" transform="translate(-104.757 -7.857)" fill="#0b318f"/>
    <path id="パス_188" data-name="パス 188" d="M164.67,10.773a2.4,2.4,0,0,0-2.107,1.09h-.073l-.073-.944h-1.452c0,.58.073,1.159.073,1.961v4.576h1.67v-3.85a1.077,1.077,0,0,1,.073-.508,1.351,1.351,0,0,1,1.307-.944c.871,0,1.235.726,1.235,1.67v3.7h1.671V13.605C166.994,11.572,165.759,10.773,164.67,10.773Z" transform="translate(-106.343 -7.857)" fill="#0b318f"/>
    <path id="パス_189" data-name="パス 189" d="M176.146,10.772a3.205,3.205,0,0,0-3.341,3.487,3.147,3.147,0,0,0,3.268,3.341,3.236,3.236,0,0,0,3.341-3.487,3.147,3.147,0,0,0-3.268-3.341Zm-.073,5.665c-1.017,0-1.6-.944-1.6-2.179,0-1.09.436-2.252,1.6-2.252s1.6,1.159,1.6,2.179C177.671,15.494,177.022,16.438,176.073,16.438Z" transform="translate(-108.377 -7.857)" fill="#0b318f"/>
    <path id="パス_190" data-name="パス 190" d="M183.425,7.843a2.964,2.964,0,0,0-.8,2.251v.291h-.872V11.62h.872v5.3H184.3V11.548h1.38V10.313h-1.452v-.289c0-.8.291-1.453,1.09-1.453a2.141,2.141,0,0,1,.726.146l.073-1.307a3.364,3.364,0,0,0-1.018-.146,2.077,2.077,0,0,0-1.67.58Z" transform="translate(-109.918 -7.252)" fill="#0b318f"/>
    <path id="パス_191" data-name="パス 191" d="M213.46,8.6a3.962,3.962,0,0,0-2.687-.727,12.028,12.028,0,0,0-2.615.219v8.934h1.67V13.689a3.251,3.251,0,0,0,.872.073,4.121,4.121,0,0,0,2.906-.945,2.906,2.906,0,0,0,.8-2.109A2.632,2.632,0,0,0,213.46,8.6Zm-2.76,3.85a2.988,2.988,0,0,1-.872-.073V9.255a3.3,3.3,0,0,1,1.018-.073c1.159,0,1.888.58,1.888,1.6s-.8,1.671-2.034,1.671Z" transform="translate(-114.458 -7.356)" fill="#0b318f"/>
    <path id="パス_192" data-name="パス 192" d="M231.981,7.966v6.61l-3.7-6.61h-1.961v9.007h1.6V10.145l3.777,6.827h1.816V7.966Z" transform="translate(-117.581 -7.375)" fill="#0b318f"/>
    <path id="パス_193" data-name="パス 193" d="M199.877,7.966l-3.123,9.007H198.5s.363-1.017.726-2.4h3.341c.436,1.307.726,2.4.726,2.4h1.816l-3.123-9.007Zm-.218,5.375c.58-1.816,1.159-3.7,1.235-3.994.073.291.654,2.107,1.235,3.994Z" transform="translate(-112.497 -7.375)" fill="#0b318f"/>
    <path id="パス_194" data-name="パス 194" d="M218.123,7.966,215,16.973h1.739s.364-1.017.726-2.4h3.342c.436,1.307.726,2.4.726,2.4h1.816L220.23,7.966Zm-.218,5.375c.58-1.816,1.159-3.7,1.235-3.994.073.291.653,2.107,1.235,3.994Z" transform="translate(-115.635 -7.375)" fill="#0b318f"/>
  </g>
</svg>
