<?xml version="1.0" encoding="UTF-8" standalone="no"?>
<svg xmlns="http://www.w3.org/2000/svg" height="26px" width="142px" version="1.1" xmlns:xlink="http://www.w3.org/1999/xlink" viewBox="0 0 142 26"><!-- Generator: Sketch 44.1 (41455) - http://www.bohemiancoding.com/sketch -->
 <title>Group 9</title>
 <desc>Created with Sketch.</desc>
 <g id="Page-1" fill-rule="evenodd" fill="none">
  <g id="Home" fill-rule="nonzero" transform="translate(-115 -44)">
   <g id="Group-8" transform="translate(115 44)">
    <g id="Group-9">
     <g id="_Group_2">
      <rect id="_Rectangle_" height="12.833" width="25.524" y="0" x="0" fill="#00AADB"/>
      <rect id="_Rectangle_2" height="12.833" width="25.524" y="12.833" x="0" fill="#3FA74D"/>
     </g>
     <path id="_Path_" fill="#1D1D1B" d="m61.712 4.9665c0.004-0.3011 0.248-0.5429 0.548-0.5429h11.004c0.303 0 0.548-0.2466 0.548-0.5509v-3.3218c0-0.30267-0.243-0.54869-0.544-0.5509h-16.04c-0.303-1.8632e-17 -0.548 0.24667-0.548 0.55094v24.559c0 0.304 0.245 0.551 0.548 0.551h16.04c0.303 0 0.548-0.247 0.548-0.551v-3.31c0-0.304-0.245-0.55-0.548-0.55h-11.004c-0.303 0-0.548-0.247-0.548-0.551v-5.82c0-0.304 0.245-0.55 0.548-0.55h10.04c0.303 0 0.548-0.247 0.548-0.551v-3.322c0-0.304-0.245-0.5511-0.548-0.5511h-10.136c-0.263-0.0451-0.456-0.2744-0.456-0.5429v-4.3955z"/>
     <path id="_Path_2" fill="#1D1D1B" d="m108.4 4.9665c0-0.2949 0.24-0.5343 0.53-0.5429h11.01c0.3 0 0.54-0.2466 0.54-0.5509v-3.3218c0-0.30423-0.24-0.5509-0.54-0.5509h-16.04c-0.31-1.8632e-17 -0.55 0.24667-0.55 0.55094v24.559c0 0.304 0.24 0.551 0.55 0.551h16.04c0.3 0 0.54-0.247 0.54-0.551v-3.31c0-0.304-0.24-0.55-0.54-0.55h-11.01c-0.3-0.009-0.53-0.256-0.53-0.555v-5.816c0-0.304 0.25-0.55 0.55-0.55h10.04c0.3 0 0.55-0.247 0.55-0.551v-3.322c0-0.304-0.25-0.5511-0.55-0.5511h-10.15c-0.26-0.053-0.44-0.2756-0.44-0.5348v-4.4036z"/>
     <path id="_Path_3" fill="#1D1D1B" d="m52.848 21.246h-10.228c-0.145 0-0.285-0.059-0.387-0.162-0.103-0.103-0.161-0.243-0.161-0.389v-20.144c0-0.14688-0.058-0.28762-0.162-0.39106s-0.244-0.16101-0.39-0.15994l-3.92 2.7628e-14c-0.145-2.024e-15 -0.285 0.058046-0.387 0.16137-0.103 0.10332-0.161 0.24345-0.161 0.38957v24.559c0 0.146 0.058 0.286 0.161 0.39 0.102 0.103 0.242 0.161 0.387 0.161h15.264c0.303 0 0.548-0.247 0.548-0.551v-3.31c0.001-0.149-0.058-0.293-0.165-0.398-0.106-0.104-0.25-0.161-0.399-0.156z"/>
     <path id="_Path_4" fill="#1D1D1B" d="m141.34 21.246h-10.23c-0.3 0-0.55-0.247-0.55-0.551v-20.144c0-0.14829-0.06-0.29028-0.16-0.39396-0.11-0.10368-0.25-0.16029-0.4-0.15704l-3.94-2.3644e-15c-0.3-1.86e-17 -0.54 0.24667-0.54 0.55094v24.559c0 0.304 0.24 0.551 0.54 0.551h15.27c0.3 0 0.55-0.247 0.55-0.551v-3.31c0-0.302-0.24-0.55-0.54-0.554z"/>
     <path id="_Path_5" fill="#1D1D1B" d="m100.03 2.7679e-14h-4.206c-0.214 0.00090877-0.407 0.12647-0.496 0.32172l-0.024 0.06032-6.208 16.774v0.032l-0.124 0.342c-0.059 0.156-0.208 0.259-0.374 0.259s-0.315-0.103-0.374-0.259l-0.132-0.35v-0.032l-6.228-16.746-0.032-0.08832c-0.091-0.19081-0.282-0.31268-0.492-0.31368l-4.208 2.7679e-14c-0.181 0.00072908-0.35 0.091049-0.451 0.2414-0.102 0.15036-0.123 0.3414-0.057 0.51062l9.044 24.431 0.072 0.193c0.099 0.164 0.277 0.265 0.468 0.265h4.728c0.244-0.001 0.457-0.165 0.52-0.402l9.074-24.459 0.02-0.05613c0.02-0.05553 0.03-0.11393 0.03-0.17293 0-0.14682-0.05-0.28756-0.16-0.391-0.1-0.10344-0.24-0.16101-0.39-0.15994v2.7679e-14z"/>
    </g>
   </g>
  </g>
 </g>
</svg>
